<?xml version="1.0" encoding="utf-8"?>
<!-- Generator: Adobe Illustrator 13.0.0, SVG Export Plug-In . SVG Version: 6.00 Build 14948)  -->
<!DOCTYPE svg PUBLIC "-//W3C//DTD SVG 1.1//EN" "http://www.w3.org/Graphics/SVG/1.1/DTD/svg11.dtd">
<svg version="1.1" id="Layer_1" xmlns="http://www.w3.org/2000/svg" xmlns:xlink="http://www.w3.org/1999/xlink" x="0px" y="0px"
	 width="530.717px" height="258.246px" viewBox="0 0 530.717 258.246" enable-background="new 0 0 530.717 258.246"
	 xml:space="preserve">
<path fill="#FFFFFF" d="M282.475,41.993h23.704V187.48h-26.146v-66.131l-23.705,62.265h-22.586l-23.706-62.265v66.131H183.99V41.993
	h23.706l37.339,98.075L282.475,41.993z"/>
<path fill="#FFFFFF" d="M316.353,41.688h37.237c9.29,0,17.837,2.849,25.637,8.546c5.291,4.003,9.463,8.953,12.516,14.854
	c3.188,6.242,4.78,12.752,4.78,19.534c0,8.41-2.34,16.212-7.019,23.4c1.285,0.748,2.508,1.561,3.661,2.441
	c5.356,4.003,9.563,8.953,12.615,14.854c3.118,6.308,4.681,12.854,4.681,19.636c0,7.869-1.934,15.041-5.801,21.518
	c-3.863,6.479-9.037,11.648-15.514,15.516c-6.479,3.865-13.685,5.8-21.62,5.8h-51.175L316.353,41.688L316.353,41.688z
	 M366.714,96.119c2.915-3.257,4.374-7.087,4.374-11.497c0-4.408-1.493-8.274-4.478-11.598c-2.983-3.322-6.749-5.256-11.293-5.8
	h-0.102c-0.543,0-1.086,0-1.627,0h-11.804c0,10.854,0,22.452,0,34.795h13.938C360.134,101.341,363.796,99.375,366.714,96.119z
	 M379.889,157.264c3.424-3.391,5.139-7.494,5.139-12.311c0-4.477-1.493-8.358-4.477-11.648c-2.986-3.289-6.751-5.205-11.293-5.75
	c-0.545-0.067-1.12-0.102-1.73-0.102h-10.581c-1.153,0.069-2.271,0.102-3.355,0.102h-11.804c0,11.871,0,23.468,0,34.796h25.74
	C372.343,162.352,376.463,160.656,379.889,157.264z"/>
<path fill="#FFFFFF" d="M454.311,183.257c-6.647-2.881-12.497-6.832-17.55-11.853c-5.054-5.019-9.003-10.853-11.853-17.498
	c-2.85-6.647-4.273-13.77-4.273-21.365V41.688h25.333v90.854c0,5.426,1.34,10.396,4.021,14.903
	c2.678,4.512,6.257,8.105,10.732,10.785c4.477,2.68,9.462,4.02,14.956,4.02c5.426,0,10.393-1.34,14.903-4.02
	c4.512-2.68,8.104-6.273,10.784-10.785c2.681-4.51,4.02-9.479,4.02-14.903V41.688h25.333v90.854c0,7.597-1.441,14.718-4.323,21.365
	c-2.884,6.646-6.834,12.479-11.853,17.498c-5.021,5.021-10.854,8.972-17.5,11.853c-6.647,2.885-13.771,4.324-21.364,4.324
	C468.078,187.582,460.957,186.143,454.311,183.257z"/>
<rect x="75.85" fill="#FFFFFF" width="25.928" height="21.471"/>
<g>
	<path fill="#FFFFFF" d="M185.211,245.859v-27.073c0-7.776,4.032-12.386,11.665-12.386s11.665,4.608,11.665,12.386v5.328h-7.489
		v-5.832c0-3.312-1.584-4.681-3.96-4.681s-3.96,1.367-3.96,4.681v28.153c0,3.312,1.584,4.608,3.96,4.608s3.96-1.297,3.96-4.608
		v-7.703h7.489v7.127c0,7.777-4.032,12.387-11.665,12.387S185.211,253.636,185.211,245.859z"/>
	<path fill="#FFFFFF" d="M227.69,207.121h11.737c8.208,0,11.737,3.816,11.737,11.593v3.097c0,5.185-1.656,8.496-5.186,9.938v0.145
		c3.96,1.225,5.256,4.969,5.256,10.656v8.855c0,2.449,0.072,4.25,0.864,6.121h-8.063c-0.433-1.295-0.721-2.088-0.721-6.191v-9.217
		c0-4.682-1.368-6.192-4.968-6.192h-2.736v21.603h-7.921V207.121z M238.492,228.723c2.951,0,4.752-1.297,4.752-5.328v-3.89
		c0-3.601-1.225-5.185-4.032-5.185h-3.601v14.4h2.881V228.723z"/>
	<path fill="#FFFFFF" d="M271.106,207.121h21.603v7.201h-13.682v13.32H289.9v7.2h-10.873v15.48h13.682v7.2h-21.603V207.121
		L271.106,207.121z"/>
	<path fill="#FFFFFF" d="M311.642,207.121h12.098c7.921,0,11.81,4.393,11.81,12.457v25.49c0,8.063-3.889,12.457-11.81,12.457
		h-12.098V207.121z M323.595,250.324c2.521,0,4.033-1.295,4.033-4.896v-26.209c0-3.602-1.514-4.896-4.033-4.896h-4.031v36.002
		L323.595,250.324L323.595,250.324z"/>
	<path fill="#FFFFFF" d="M355.273,207.121h7.921v50.404h-7.921V207.121z"/>
	<path fill="#FFFFFF" d="M389.688,214.322h-8.28v-7.201h24.481v7.201h-8.28v43.203h-7.921V214.322z"/>
</g>
<path fill="#FFFFFF" d="M170.911,80.778C166.433,70,160.005,60.379,151.631,51.92c-8.459-8.375-18.08-14.802-28.858-19.281
	c-10.781-4.477-22.1-6.716-33.959-6.716c-11.858,0-23.158,2.239-33.895,6.716C44.178,37.119,34.58,43.545,26.122,51.92
	C17.664,60.379,11.195,70,6.718,80.778C2.24,91.558,0,102.878,0,114.736c0,11.859,2.24,23.159,6.718,33.898
	c4.477,10.738,10.946,20.339,19.404,28.795c8.458,8.458,18.056,14.925,28.797,19.404c10.736,4.478,22.036,6.716,33.895,6.716
	c11.859,0,23.178-2.238,33.959-6.717c10.778-4.479,20.399-10.946,28.858-19.404c8.374-8.457,14.801-18.057,19.28-28.795
	c4.479-10.738,6.716-22.038,6.716-33.897C177.627,102.878,175.39,91.558,170.911,80.778z M138.944,143.782
	c-5.226,8.751-12.212,15.733-20.96,20.958c-8.751,5.225-18.471,7.838-29.17,7.838c-10.616,0-20.296-2.613-29.045-7.838
	c-8.748-5.225-15.733-12.207-20.959-20.958c-5.224-8.749-7.836-18.43-7.836-29.046c0-10.697,2.612-20.418,7.836-29.168
	c5.226-8.748,12.211-15.736,20.959-20.96c5.049-3.016,10.411-5.155,16.081-6.43v-17.93h25.928v17.913
	c5.729,1.272,11.131,3.417,16.206,6.447c8.748,5.224,15.734,12.212,20.96,20.96c5.225,8.75,7.836,18.471,7.836,29.168
	C146.78,125.352,144.168,135.033,138.944,143.782z"/>
</svg>
